<svg width="468" height="468" viewBox="0 0 468 468" fill="none" xmlns="http://www.w3.org/2000/svg">
<path d="M396.182 81.0339C366.353 67.3472 334.366 57.2635 300.922 51.4881C300.313 51.3766 299.705 51.6552 299.391 52.2123C295.277 59.529 290.72 69.0742 287.529 76.5767C251.558 71.1914 215.771 71.1914 180.537 76.5767C177.346 68.9075 172.623 59.529 168.491 52.2123C168.177 51.6738 167.569 51.3952 166.96 51.4881C133.534 57.245 101.547 67.3288 71.7002 81.0339C71.4418 81.1453 71.2204 81.3312 71.0734 81.5725C10.4011 172.215 -6.21953 260.631 1.93401 347.95C1.97091 348.377 2.21071 348.785 2.54276 349.045C42.5726 378.442 81.3483 396.289 119.404 408.118C120.013 408.304 120.658 408.081 121.046 407.579C130.048 395.286 138.073 382.324 144.953 368.692C145.359 367.894 144.971 366.947 144.141 366.631C131.413 361.803 119.293 355.916 107.635 349.231C106.713 348.692 106.639 347.373 107.487 346.742C109.94 344.904 112.394 342.991 114.737 341.059C115.161 340.707 115.752 340.632 116.25 340.855C192.841 375.824 275.76 375.824 351.448 340.855C351.946 340.614 352.537 340.688 352.979 341.041C355.322 342.972 357.775 344.904 360.247 346.742C361.096 347.373 361.04 348.692 360.118 349.231C348.46 356.046 336.34 361.803 323.593 366.613C322.763 366.929 322.394 367.894 322.8 368.692C329.828 382.305 337.853 395.267 346.688 407.561C347.058 408.081 347.721 408.304 348.33 408.118C386.571 396.289 425.346 378.442 465.376 349.045C465.727 348.785 465.948 348.395 465.985 347.968C475.743 247.018 449.641 159.328 396.79 81.5909C396.661 81.3312 396.44 81.1453 396.182 81.0339ZM156.39 294.781C133.331 294.781 114.331 273.611 114.331 247.612C114.331 221.613 132.963 200.443 156.39 200.443C180.002 200.443 198.818 221.799 198.449 247.612C198.449 273.611 179.817 294.781 156.39 294.781ZM311.898 294.781C288.839 294.781 269.839 273.611 269.839 247.612C269.839 221.613 288.47 200.443 311.898 200.443C335.51 200.443 354.325 221.799 353.957 247.612C353.957 273.611 335.51 294.781 311.898 294.781Z" fill="black"/>
</svg>
