<svg width="68" height="68" viewBox="0 0 68 68" fill="none" xmlns="http://www.w3.org/2000/svg">
<path d="M57.5649 11.774C53.2308 9.78538 48.5831 8.32022 43.7237 7.48106C43.6352 7.46486 43.5468 7.50534 43.5012 7.58629C42.9035 8.6494 42.2414 10.0363 41.7778 11.1264C36.5511 10.3439 31.3514 10.3439 26.2319 11.1264C25.7682 10.0121 25.082 8.6494 24.4816 7.58629C24.436 7.50804 24.3476 7.46756 24.2591 7.48106C19.4024 8.31754 14.7548 9.7827 10.418 11.774C10.3804 11.7902 10.3483 11.8172 10.3269 11.8523C1.51128 25.0226 -0.903692 37.8693 0.28101 50.5566C0.286371 50.6187 0.321215 50.6781 0.369461 50.7158C6.18576 54.9872 11.8198 57.5803 17.3493 59.2991C17.4378 59.3261 17.5315 59.2937 17.5879 59.2208C18.8959 57.4346 20.0618 55.5512 21.0615 53.5706C21.1205 53.4546 21.0642 53.317 20.9436 53.2711C19.0942 52.5695 17.3332 51.7142 15.6392 50.7428C15.5052 50.6646 15.4945 50.4729 15.6178 50.3812C15.9743 50.1141 16.3308 49.8361 16.6712 49.5555C16.7328 49.5043 16.8186 49.4935 16.891 49.5258C28.0196 54.6068 40.0677 54.6068 51.065 49.5258C51.1374 49.4908 51.2233 49.5016 51.2875 49.5528C51.628 49.8335 51.9845 50.1141 52.3436 50.3812C52.4669 50.4729 52.4588 50.6646 52.3249 50.7428C50.6309 51.733 48.8699 52.5695 47.0178 53.2684C46.8972 53.3143 46.8436 53.4546 46.9026 53.5706C47.9237 55.5484 49.0897 57.4318 50.3735 59.2181C50.4272 59.2937 50.5236 59.3261 50.6121 59.2991C56.1684 57.5803 61.8024 54.9872 67.6187 50.7158C67.6697 50.6781 67.7019 50.6214 67.7072 50.5593C69.1251 35.8913 65.3324 23.1501 57.6533 11.855C57.6345 11.8172 57.6024 11.7902 57.5649 11.774ZM22.7234 42.8314C19.3729 42.8314 16.6122 39.7554 16.6122 35.9777C16.6122 32.2001 19.3194 29.1241 22.7234 29.1241C26.1541 29.1241 28.8881 32.2271 28.8345 35.9777C28.8345 39.7554 26.1273 42.8314 22.7234 42.8314ZM45.3185 42.8314C41.9681 42.8314 39.2074 39.7554 39.2074 35.9777C39.2074 32.2001 41.9144 29.1241 45.3185 29.1241C48.7493 29.1241 51.4832 32.2271 51.4296 35.9777C51.4296 39.7554 48.7493 42.8314 45.3185 42.8314Z" fill="#EDEBDE"/>
</svg>
