<svg width="398" height="400" viewBox="0 0 398 400" fill="none" xmlns="http://www.w3.org/2000/svg">
<path fill-rule="evenodd" clip-rule="evenodd" d="M199.165 0C89.0317 0 0 90.1388 0 201.653C0 290.792 57.0457 366.246 136.183 392.952C146.077 394.959 149.702 388.613 149.702 383.274C149.702 378.599 149.376 362.575 149.376 345.879C93.9727 357.9 82.4356 321.841 82.4356 321.841C73.532 298.47 60.3397 292.463 60.3397 292.463C42.2064 280.11 61.6606 280.11 61.6606 280.11C81.7752 281.446 92.3298 300.81 92.3298 300.81C110.133 331.522 138.821 322.844 150.362 317.502C152.009 304.481 157.288 295.467 162.894 290.46C118.706 285.785 72.2152 268.425 72.2152 190.967C72.2152 168.932 80.1241 150.905 92.656 136.884C90.6787 131.877 83.7524 111.174 94.6373 83.4644C94.6373 83.4644 111.454 78.1216 149.371 104.164C165.605 99.7495 182.347 97.504 199.165 97.4851C215.981 97.4851 233.124 99.8246 248.954 104.164C286.876 78.1216 303.692 83.4644 303.692 83.4644C314.577 111.174 307.646 131.877 305.669 136.884C318.531 150.905 326.114 168.932 326.114 190.967C326.114 268.425 279.623 285.449 235.105 290.46C242.362 296.802 248.624 308.82 248.624 327.851C248.624 354.893 248.297 376.596 248.297 383.27C248.297 388.613 251.926 394.959 261.816 392.956C340.953 366.242 397.999 290.792 397.999 201.653C398.325 90.1388 308.967 0 199.165 0Z" fill="black"/>
</svg>
