<svg width="58" height="58" viewBox="0 0 58 58" fill="none" xmlns="http://www.w3.org/2000/svg">
<g clip-path="url(#clip0_165_300)">
<path fill-rule="evenodd" clip-rule="evenodd" d="M29.024 0C12.9745 0 0 13.0701 0 29.2397C0 42.1648 8.31319 53.1057 19.8458 56.978C21.2877 57.2691 21.8158 56.3489 21.8158 55.5748C21.8158 54.8969 21.7683 52.5734 21.7683 50.1524C13.6945 51.8955 12.0132 46.6669 12.0132 46.6669C10.7157 43.2782 8.79322 42.4072 8.79322 42.4072C6.15068 40.616 8.98571 40.616 8.98571 40.616C11.917 40.8097 13.4551 43.6174 13.4551 43.6174C16.0495 48.0707 20.2302 46.8124 21.9121 46.0377C22.1521 44.1497 22.9214 42.8427 23.7383 42.1167C17.2989 41.4388 10.5238 38.9216 10.5238 27.6902C10.5238 24.4952 11.6764 21.8812 13.5026 19.8482C13.2145 19.1222 12.2051 16.1202 13.7914 12.1023C13.7914 12.1023 16.242 11.3276 21.7677 15.1037C24.1334 14.4637 26.5732 14.1381 29.024 14.1353C31.4746 14.1353 33.9728 14.4746 36.2797 15.1037C41.806 11.3276 44.2566 12.1023 44.2566 12.1023C45.8429 16.1202 44.8329 19.1222 44.5448 19.8482C46.4191 21.8812 47.5242 24.4952 47.5242 27.6902C47.5242 38.9216 40.7491 41.3901 34.2615 42.1167C35.319 43.0364 36.2316 44.7788 36.2316 47.5384C36.2316 51.4595 36.184 54.6064 36.184 55.5742C36.184 56.3489 36.7128 57.2691 38.1541 56.9786C49.6867 53.1051 57.9999 42.1648 57.9999 29.2397C58.0474 13.0701 45.0254 0 29.024 0Z" fill="#EDEBDE"/>
</g>
<defs>
<clipPath id="clip0_165_300">
<rect width="58" height="58" fill="white"/>
</clipPath>
</defs>
</svg>
