<svg width="393" height="394" viewBox="0 0 393 394" fill="none" xmlns="http://www.w3.org/2000/svg">
<g clip-path="url(#clip0_219_71)">
<path d="M363.909 0H29.0145C12.9721 0 0 12.6973 0 28.3957V365.527C0 381.226 12.9721 394 29.0145 394H363.909C379.951 394 393 381.226 393 365.604V28.3957C393 12.6973 379.951 0 363.909 0ZM116.595 335.746H58.2592V147.673H116.595V335.746ZM87.4272 122.048C68.6982 122.048 53.577 106.888 53.577 88.1883C53.577 69.4887 68.6982 54.3289 87.4272 54.3289C106.079 54.3289 121.201 69.4887 121.201 88.1883C121.201 106.811 106.079 122.048 87.4272 122.048ZM334.894 335.746H276.635V244.326C276.635 222.548 276.251 194.461 246.316 194.461C215.996 194.461 211.391 218.239 211.391 242.787V335.746H153.209V147.673H209.088V173.375H209.856C217.608 158.6 236.644 142.979 264.968 142.979C323.995 142.979 334.894 181.917 334.894 232.552V335.746V335.746Z" fill="black"/>
</g>
<defs>
<clipPath id="clip0_219_71">
<rect width="393" height="394" fill="white"/>
</clipPath>
</defs>
</svg>
