<svg width="57" height="57" viewBox="0 0 57 57" fill="none" xmlns="http://www.w3.org/2000/svg">
<g clip-path="url(#clip0_165_321)">
<path d="M52.7807 0H4.2082C1.88145 0 0 1.83691 0 4.10801V52.8809C0 55.152 1.88145 57 4.2082 57H52.7807C55.1074 57 57 55.152 57 52.892V4.10801C57 1.83691 55.1074 0 52.7807 0ZM16.9107 48.5725H8.44981V21.3639H16.9107V48.5725ZM12.6803 17.6566C9.96387 17.6566 7.7707 15.4635 7.7707 12.7582C7.7707 10.0529 9.96387 7.85977 12.6803 7.85977C15.3855 7.85977 17.5787 10.0529 17.5787 12.7582C17.5787 15.4523 15.3855 17.6566 12.6803 17.6566ZM48.5725 48.5725H40.1227V35.3467C40.1227 32.1961 40.067 28.1326 35.7252 28.1326C31.3277 28.1326 30.6598 31.5727 30.6598 35.124V48.5725H22.2211V21.3639H30.3258V25.0822H30.4371C31.5615 22.9447 34.3225 20.6848 38.4305 20.6848C46.9916 20.6848 48.5725 26.318 48.5725 33.6434V48.5725V48.5725Z" fill="#EDEBDE"/>
</g>
<defs>
<clipPath id="clip0_165_321">
<rect width="57" height="57" fill="white"/>
</clipPath>
</defs>
</svg>
