<svg width="804" height="804" viewBox="0 0 804 804" fill="none" xmlns="http://www.w3.org/2000/svg">
<path d="M402 402C420.425 402 436.198 395.44 449.319 382.319C462.44 369.198 469 353.425 469 335C469 316.575 462.44 300.802 449.319 287.681C436.198 274.56 420.425 268 402 268C383.575 268 367.802 274.56 354.681 287.681C341.56 300.802 335 316.575 335 335C335 353.425 341.56 369.198 354.681 382.319C367.802 395.44 383.575 402 402 402ZM402 737C312.108 660.508 244.969 589.46 200.581 523.856C156.194 458.252 134 397.533 134 341.7C134 257.95 160.94 191.229 214.819 141.538C268.698 91.8458 331.092 67 402 67C472.908 67 535.302 91.8458 589.181 141.538C643.06 191.229 670 257.95 670 341.7C670 397.533 647.806 458.252 603.419 523.856C559.031 589.46 491.892 660.508 402 737Z" fill="#A2020C"/>
</svg>
