<svg width="513" height="513" viewBox="0 0 513 513" fill="none" xmlns="http://www.w3.org/2000/svg">
<path d="M256.5 256.5C268.256 256.5 278.32 252.314 286.692 243.942C295.064 235.57 299.25 225.506 299.25 213.75C299.25 201.994 295.064 191.93 286.692 183.558C278.32 175.186 268.256 171 256.5 171C244.744 171 234.68 175.186 226.308 183.558C217.936 191.93 213.75 201.994 213.75 213.75C213.75 225.506 217.936 235.57 226.308 243.942C234.68 252.314 244.744 256.5 256.5 256.5ZM256.5 470.25C199.144 421.444 156.305 376.111 127.983 334.252C99.6609 292.392 85.5 253.65 85.5 218.025C85.5 164.587 102.689 122.016 137.067 90.3094C171.445 58.6031 211.256 42.75 256.5 42.75C301.744 42.75 341.555 58.6031 375.933 90.3094C410.311 122.016 427.5 164.587 427.5 218.025C427.5 253.65 413.339 292.392 385.017 334.252C356.695 376.111 313.856 421.444 256.5 470.25Z" fill="#EDEBDE"/>
</svg>
