<svg width="12619" height="15588" viewBox="0 0 12619 15588" fill="none" xmlns="http://www.w3.org/2000/svg">
<path d="M9031.01 8572.05C9585.24 8027.38 10184.9 7526.98 10825.2 7079.44L12331.8 6025.76L10825.2 4972.08C10585.5 4804.87 10353.3 4630.28 10124.7 4448.32L9192 5381.51C9086.31 5487.24 8942.53 5563.47 8818.42 5643.39C8114.27 6094.61 7257.74 6153.63 6495.84 5815.52C6229.17 5697.49 6014.12 5540.11 5752.37 5354.46C6522.87 6234.78 6693.69 7480.26 5998.14 8490.9C5929.33 8590.49 5869.11 8709.75 5784.32 8793.36L4732.4 9844.58C4913.05 10072 5087.55 10305.6 5254.67 10544.2L6307.82 12051.5L7360.97 10544.2C7839 9859.33 8377.25 9219.99 8967.11 8633.52C8543.15 8334.76 8050.37 8147.87 7519.49 8141.72C6896.45 8119.59 6349.6 8374.1 5851.91 8735.57L8946.22 5631.09C9015.04 5562.24 9078.94 5509.37 9150.21 5449.13L8970.8 5702.4C8356.36 6566.74 8439.92 7705.25 9029.78 8572.05H9031.01Z" fill="#A2020C"/>
<path d="M4780.33 3318.41C5088.78 3481.93 5413.2 3636.85 5756.06 3784.39C6364.35 4046.27 6973.88 4241.76 7622.72 4357.33C8422.72 4487.66 9162.51 4482.74 9866.65 4238.07C8916.73 3443.82 8073.72 2525.38 7362.2 1507.36L6309.05 0L5255.91 1507.36C5045.77 1807.36 4824.57 2098.75 4593.54 2380.3C4346.54 2681.53 4436.25 3135.21 4780.33 3317.18V3318.41Z" fill="#A2020C"/>
<path d="M4571.42 9645.39C4860.21 8939.66 4898.3 8192.13 4780.33 7362.22C4682.02 6737.64 4507.52 6149.94 4270.35 5561.01C4116.74 5179.86 3931.18 4788.88 3722.27 4397.91C3537.94 4052.42 3078.34 3960.2 2778.49 4213.48C2461.44 4480.28 2132.1 4733.56 1791.7 4972.08L285.098 6025.76L1791.7 7079.44C2831.33 7806.07 3765.28 8670.4 4570.19 9645.39H4571.42Z" fill="#A2020C"/>
<path d="M1055.61 14667.9L439.938 13477.7H0V15572.8H406.758V14198.2L943.778 15222.4H1171.12L1710.6 14198.2V15572.8H2114.9V13477.7H1678.65L1055.61 14667.9Z" fill="#A2020C"/>
<path d="M2957.9 13477.7H2551.14V15572.8H2957.9V13477.7Z" fill="#A2020C"/>
<path d="M4674.65 15092.1C4618.12 15138.8 4555.45 15173.2 4489.09 15195.3C4422.73 15217.5 4357.6 15227.3 4294.93 15227.3C4203.99 15227.3 4121.66 15207.6 4045.47 15169.5C3969.28 15131.4 3905.37 15078.5 3851.3 15013.4C3797.23 14948.2 3755.45 14872 3725.96 14785.9C3696.47 14699.9 3681.72 14612.6 3681.72 14521.6C3681.72 14436.7 3694.01 14353.1 3719.81 14270.8C3745.62 14188.4 3783.72 14113.4 3832.87 14047C3883.25 13980.6 3945.93 13926.5 4022.12 13884.7C4098.31 13842.9 4186.79 13823.2 4288.78 13823.2C4350.23 13823.2 4412.9 13833.1 4479.26 13852.7C4545.62 13872.4 4607.06 13904.4 4663.59 13949.9C4720.12 13995.4 4766.82 14056.8 4802.46 14135.5L5112.13 13920.4C5045.77 13785.1 4941.32 13674.5 4801.23 13589.6C4661.13 13504.8 4494.01 13463 4301.07 13463C4140.09 13463 3995.08 13492.5 3867.28 13552.7C3739.48 13613 3631.34 13692.9 3541.63 13793.7C3451.92 13894.5 3384.33 14005.2 3337.63 14128.1C3290.94 14251.1 3268.82 14377.7 3268.82 14506.8C3268.82 14635.9 3293.39 14768.7 3343.78 14897.8C3394.16 15026.9 3464.21 15142.5 3555.14 15245.7C3646.08 15349 3751.77 15431.4 3874.65 15494.1C3997.54 15555.6 4133.95 15587.5 4282.64 15587.5C4396.93 15587.5 4511.21 15569.1 4626.73 15531C4742.24 15494.1 4845.47 15438.8 4938.86 15366.2C5032.25 15293.7 5101.07 15205.2 5144.08 15100.7L4813.51 14906.4C4777.88 14982.6 4732.41 15045.3 4674.65 15092.1Z" fill="#A2020C"/>
<path d="M5957.6 13477.7L5184.63 15572.8H5603.68L5778.18 15050.3H6547.46L6721.96 15572.8H7141.01L6371.73 13477.7H5958.83H5957.6ZM5874.03 14765L6164.05 13900.7L6451.61 14765H5874.03Z" fill="#A2020C"/>
<path d="M7777.57 14670.3H8656.21V14339.6H7777.57V13835.5H8797.53V13477.7H7370.81V15572.8H8824.57V15216.2H7777.57V14670.3Z" fill="#A2020C"/>
<path d="M9549.61 13477.7H9142.85V15572.8H10617.5V15216.2H9549.61V13477.7Z" fill="#A2020C"/>
<path d="M11847.6 13477.7H11434.7L10661.7 15572.8H11080.8L11255.3 15050.3H12024.6L12199.1 15572.8H12618.1L11848.8 13477.7H11847.6ZM11351.1 14765L11641.2 13900.7L11928.7 14765H11351.1Z" fill="#A2020C"/>
</svg>
