<svg width="1472" height="1472" viewBox="0 0 1472 1472" fill="none" xmlns="http://www.w3.org/2000/svg">
<path d="M1287.89 607.301C1258.6 586.878 1230.22 565.553 1202.29 543.328L1088.31 657.309C1075.39 670.224 1057.82 679.535 1042.65 689.296C956.605 744.41 851.934 751.618 758.826 710.32C726.239 695.904 699.958 676.682 667.971 654.005C762.13 761.529 783.004 913.655 698.006 1037.1C689.596 1049.26 682.238 1063.83 671.876 1074.04L543.328 1202.44C565.403 1230.22 586.728 1258.75 607.151 1287.89L735.85 1472L864.548 1287.89C922.966 1204.24 988.742 1126.15 1060.83 1054.52C1009.02 1018.03 948.796 995.199 883.921 994.449C807.783 991.745 740.956 1022.83 680.136 1066.98L1058.27 687.794C1066.68 679.385 1074.49 672.927 1083.2 665.569L1061.28 696.504C986.189 802.076 996.401 941.137 1068.48 1047.01C1136.21 980.482 1209.5 919.362 1287.74 864.699L1471.85 736L1287.74 607.301H1287.89Z" fill="#EDEBDE"/>
<path d="M896.535 532.215C994.298 548.133 1084.7 547.532 1170.75 517.648C1054.67 420.636 951.649 308.456 864.699 184.113L736 0L607.301 184.113C581.622 220.755 554.59 256.346 526.358 290.736C496.173 327.528 507.136 382.942 549.184 405.168C586.878 425.141 626.524 444.063 668.422 462.084C742.758 494.071 817.244 517.948 896.535 532.065V532.215Z" fill="#EDEBDE"/>
<path d="M549.184 899.239C537.17 822.95 515.846 751.168 486.862 679.234C468.091 632.681 445.414 584.926 419.885 537.17C397.359 494.972 341.194 483.709 304.552 514.644C265.807 547.232 225.561 578.168 183.962 607.301L0 736L184.113 864.699C311.159 953.451 425.291 1059.02 523.655 1178.11C558.946 1091.91 563.601 1000.61 549.184 899.239Z" fill="#EDEBDE"/>
</svg>
