<?xml version="1.0" encoding="UTF-8"?>
<svg id="Layer_2" data-name="Layer 2" xmlns="http://www.w3.org/2000/svg" viewBox="0 0 102.67 126.78">
  <defs>
    <style>
      .cls-1 {
        fill: #a2020c;
      }
    </style>
  </defs>
  <g id="Working_Layer" data-name="Working Layer">
    <g>
      <path class="cls-1" d="M73.49,69.72c4.51-4.43,9.39-8.5,14.6-12.14l12.26-8.57-12.26-8.57c-1.95-1.36-3.84-2.78-5.7-4.26l-7.59,7.59c-.86.86-2.03,1.48-3.04,2.13-5.73,3.67-12.7,4.15-18.9,1.4-2.17-.96-3.92-2.24-6.05-3.75,6.27,7.16,7.66,17.29,2,25.51-.56.81-1.05,1.78-1.74,2.46l-8.56,8.55c1.47,1.85,2.89,3.75,4.25,5.69l8.57,12.26,8.57-12.26c3.89-5.57,8.27-10.77,13.07-15.54-3.45-2.43-7.46-3.95-11.78-4-5.07-.18-9.52,1.89-13.57,4.83l25.18-25.25c.56-.56,1.08-.99,1.66-1.48l-1.46,2.06c-5,7.03-4.32,16.29.48,23.34Z"/>
      <path class="cls-1" d="M38.9,26.99c2.51,1.33,5.15,2.59,7.94,3.79,4.95,2.13,9.91,3.72,15.19,4.66,6.51,1.06,12.53,1.02,18.26-.97-7.73-6.46-14.59-13.93-20.38-22.21L51.34,0l-8.57,12.26c-1.71,2.44-3.51,4.81-5.39,7.1-2.01,2.45-1.28,6.14,1.52,7.62Z"/>
      <path class="cls-1" d="M37.2,78.45c2.35-5.74,2.66-11.82,1.7-18.57-.8-5.08-2.22-9.86-4.15-14.65-1.25-3.1-2.76-6.28-4.46-9.46-1.5-2.81-5.24-3.56-7.68-1.5-2.58,2.17-5.26,4.23-8.03,6.17l-12.26,8.57,12.26,8.57c8.46,5.91,16.06,12.94,22.61,20.87Z"/>
      <polygon class="cls-1" points="8.59 119.3 3.58 109.62 0 109.62 0 126.66 3.31 126.66 3.31 115.48 7.68 123.81 9.53 123.81 13.92 115.48 13.92 126.66 17.21 126.66 17.21 109.62 13.66 109.62 8.59 119.3"/>
      <rect class="cls-1" x="20.76" y="109.62" width="3.31" height="17.04"/>
      <path class="cls-1" d="M38.04,122.75c-.46.38-.97.66-1.51.84-.54.18-1.07.26-1.58.26-.74,0-1.41-.16-2.03-.47-.62-.31-1.14-.74-1.58-1.27s-.78-1.15-1.02-1.85c-.24-.7-.36-1.41-.36-2.15,0-.69.1-1.37.31-2.04.21-.67.52-1.28.92-1.82.41-.54.92-.98,1.54-1.32.62-.34,1.34-.5,2.17-.5.5,0,1.01.08,1.55.24.54.16,1.04.42,1.5.79.46.37.84.87,1.13,1.51l2.52-1.75c-.54-1.1-1.39-2-2.53-2.69s-2.5-1.03-4.07-1.03c-1.31,0-2.49.24-3.53.73-1.04.49-1.92,1.14-2.65,1.96-.73.82-1.28,1.72-1.66,2.72-.38,1-.56,2.03-.56,3.08s.2,2.13.61,3.18c.41,1.05.98,1.99,1.72,2.83.74.84,1.6,1.51,2.6,2.02,1,.5,2.11.76,3.32.76.93,0,1.86-.15,2.8-.46.94-.3,1.78-.75,2.54-1.34.76-.59,1.32-1.31,1.67-2.16l-2.69-1.58c-.29.62-.66,1.13-1.13,1.51Z"/>
      <path class="cls-1" d="M48.48,109.62l-6.29,17.04h3.41l1.42-4.25h6.26l1.42,4.25h3.41l-6.26-17.04h-3.36ZM47.8,120.09l2.36-7.03,2.34,7.03h-4.7Z"/>
      <polygon class="cls-1" points="63.29 119.32 70.44 119.32 70.44 116.63 63.29 116.63 63.29 112.53 71.59 112.53 71.59 109.62 59.98 109.62 59.98 126.66 71.81 126.66 71.81 123.76 63.29 123.76 63.29 119.32"/>
      <polygon class="cls-1" points="77.71 109.62 74.4 109.62 74.4 126.66 86.4 126.66 86.4 123.76 77.71 123.76 77.71 109.62"/>
      <path class="cls-1" d="M96.41,109.62h-3.36l-6.29,17.04h3.41l1.42-4.25h6.26l1.42,4.25h3.41l-6.26-17.04ZM92.37,120.09l2.36-7.03,2.34,7.03h-4.7Z"/>
    </g>
  </g>
</svg>