<?xml version="1.0" encoding="UTF-8"?>
<svg id="Layer_2" data-name="Layer 2" xmlns="http://www.w3.org/2000/svg" viewBox="0 0 98.02 98.02">
  <defs>
    <style>
      .cls-1 {
        fill: #a2020c;
      }
    </style>
  </defs>
  <g id="Working_Layer" data-name="Working Layer">
    <g>
      <path class="cls-1" d="M85.76,40.44c-1.95-1.36-3.84-2.78-5.7-4.26l-7.59,7.59c-.86.86-2.03,1.48-3.04,2.13-5.73,3.67-12.7,4.15-18.9,1.4-2.17-.96-3.92-2.24-6.05-3.75,6.27,7.16,7.66,17.29,2,25.51-.56.81-1.05,1.78-1.74,2.46l-8.56,8.55c1.47,1.85,2.89,3.75,4.25,5.69l8.57,12.26,8.57-12.26c3.89-5.57,8.27-10.77,13.07-15.54-3.45-2.43-7.46-3.95-11.78-4-5.07-.18-9.52,1.89-13.57,4.83l25.18-25.25c.56-.56,1.08-.99,1.66-1.48l-1.46,2.06c-5,7.03-4.32,16.29.48,23.34,4.51-4.43,9.39-8.5,14.6-12.14l12.26-8.57-12.26-8.57Z"/>
      <path class="cls-1" d="M59.7,35.44c6.51,1.06,12.53,1.02,18.26-.97-7.73-6.46-14.59-13.93-20.38-22.21L49.01,0l-8.57,12.26c-1.71,2.44-3.51,4.81-5.39,7.1-2.01,2.45-1.28,6.14,1.52,7.62,2.51,1.33,5.15,2.59,7.94,3.79,4.95,2.13,9.91,3.72,15.19,4.66Z"/>
      <path class="cls-1" d="M36.57,59.88c-.8-5.08-2.22-9.86-4.15-14.65-1.25-3.1-2.76-6.28-4.46-9.46-1.5-2.81-5.24-3.56-7.68-1.5-2.58,2.17-5.26,4.23-8.03,6.17L0,49.01l12.26,8.57c8.46,5.91,16.06,12.94,22.61,20.87,2.35-5.74,2.66-11.82,1.7-18.57Z"/>
    </g>
  </g>
</svg>